<svg id="visual" viewBox="0 0 900 600" width="900" height="600" xmlns="http://www.w3.org/2000/svg" xmlns:xlink="http://www.w3.org/1999/xlink" version="1.1"><rect x="0" y="0" width="900" height="600" fill="#252525"></rect><path d="M0 373L21.5 382.3C43 391.7 86 410.3 128.8 413.8C171.7 417.3 214.3 405.7 257.2 395.2C300 384.7 343 375.3 385.8 372C428.7 368.7 471.3 371.3 514.2 383.5C557 395.7 600 417.3 642.8 427.7C685.7 438 728.3 437 771.2 425.2C814 413.3 857 390.7 878.5 379.3L900 368L900 601L878.5 601C857 601 814 601 771.2 601C728.3 601 685.7 601 642.8 601C600 601 557 601 514.2 601C471.3 601 428.7 601 385.8 601C343 601 300 601 257.2 601C214.3 601 171.7 601 128.8 601C86 601 43 601 21.5 601L0 601Z" fill="#ff6f61"></path><path d="M0 413L21.5 409.8C43 406.7 86 400.3 128.8 409.7C171.7 419 214.3 444 257.2 446.8C300 449.7 343 430.3 385.8 426C428.7 421.7 471.3 432.3 514.2 443.8C557 455.3 600 467.7 642.8 469.2C685.7 470.7 728.3 461.3 771.2 449.5C814 437.7 857 423.3 878.5 416.2L900 409L900 601L878.5 601C857 601 814 601 771.2 601C728.3 601 685.7 601 642.8 601C600 601 557 601 514.2 601C471.3 601 428.7 601 385.8 601C343 601 300 601 257.2 601C214.3 601 171.7 601 128.8 601C86 601 43 601 21.5 601L0 601Z" fill="#c8507f"></path><path d="M0 444L21.5 449.3C43 454.7 86 465.3 128.8 472.5C171.7 479.7 214.3 483.3 257.2 478.8C300 474.3 343 461.7 385.8 457.5C428.7 453.3 471.3 457.7 514.2 458.7C557 459.7 600 457.3 642.8 463.2C685.7 469 728.3 483 771.2 488.3C814 493.7 857 490.3 878.5 488.7L900 487L900 601L878.5 601C857 601 814 601 771.2 601C728.3 601 685.7 601 642.8 601C600 601 557 601 514.2 601C471.3 601 428.7 601 385.8 601C343 601 300 601 257.2 601C214.3 601 171.7 601 128.8 601C86 601 43 601 21.5 601L0 601Z" fill="#7a4781"></path><path d="M0 505L21.5 503C43 501 86 497 128.8 501.2C171.7 505.3 214.3 517.7 257.2 522.3C300 527 343 524 385.8 524C428.7 524 471.3 527 514.2 522.7C557 518.3 600 506.7 642.8 506.2C685.7 505.7 728.3 516.3 771.2 516.3C814 516.3 857 505.7 878.5 500.3L900 495L900 601L878.5 601C857 601 814 601 771.2 601C728.3 601 685.7 601 642.8 601C600 601 557 601 514.2 601C471.3 601 428.7 601 385.8 601C343 601 300 601 257.2 601C214.3 601 171.7 601 128.8 601C86 601 43 601 21.5 601L0 601Z" fill="#2e3963"></path><path d="M0 555L21.5 556.2C43 557.3 86 559.7 128.8 555.5C171.7 551.3 214.3 540.7 257.2 537.7C300 534.7 343 539.3 385.8 545.3C428.7 551.3 471.3 558.7 514.2 558C557 557.3 600 548.7 642.8 545.7C685.7 542.7 728.3 545.3 771.2 544.7C814 544 857 540 878.5 538L900 536L900 601L878.5 601C857 601 814 601 771.2 601C728.3 601 685.7 601 642.8 601C600 601 557 601 514.2 601C471.3 601 428.7 601 385.8 601C343 601 300 601 257.2 601C214.3 601 171.7 601 128.8 601C86 601 43 601 21.5 601L0 601Z" fill="#002233"></path></svg>